<?xml version="1.0" encoding="UTF-8" standalone="no"?>
<svg
   xmlns:dc="http://purl.org/dc/elements/1.1/"
   xmlns:cc="http://creativecommons.org/ns#"
   xmlns:rdf="http://www.w3.org/1999/02/22-rdf-syntax-ns#"
   xmlns:svg="http://www.w3.org/2000/svg"
   xmlns="http://www.w3.org/2000/svg"
   xmlns:sodipodi="http://sodipodi.sourceforge.net/DTD/sodipodi-0.dtd"
   xmlns:inkscape="http://www.inkscape.org/namespaces/inkscape"
   id="Слой_1"
   data-name="Слой 1"
   viewBox="0 0 339.54 282.92"
   version="1.1"
   inkscape:version="0.91 r13725"
   sodipodi:docname="home-inverse.svg">
  <metadata
     id="metadata78">
    <rdf:RDF>
      <cc:Work
         rdf:about="">
        <dc:format>image/svg+xml</dc:format>
        <dc:type
           rdf:resource="http://purl.org/dc/dcmitype/StillImage" />
        <dc:title>guide</dc:title>
      </cc:Work>
    </rdf:RDF>
  </metadata>
  <sodipodi:namedview
     pagecolor="#ffffff"
     bordercolor="#666666"
     borderopacity="1"
     objecttolerance="10"
     gridtolerance="10"
     guidetolerance="10"
     inkscape:pageopacity="0"
     inkscape:pageshadow="2"
     inkscape:window-width="687"
     inkscape:window-height="405"
     id="namedview76"
     showgrid="false"
     inkscape:zoom="0.83415803"
     inkscape:cx="185.59632"
     inkscape:cy="173.40259"
     inkscape:window-x="205"
     inkscape:window-y="118"
     inkscape:window-maximized="0"
     inkscape:current-layer="Слой_1" />
  <defs
     id="defs3">
    <style
       id="style5">.cls-1{fill:none;}.cls-2{fill:#e64c3c;}.cls-3{fill:#fff;}.cls-4{fill:#bcd3dd;}.cls-5{clip-path:url(#clip-path);}.cls-6{fill:#eee;}.cls-7{fill:#3f5765;}.cls-8{fill:#2b3a42;}</style>
    <clipPath
       id="clip-path">
      <circle
         class="cls-1"
         cx="170.08"
         cy="98.68"
         r="98.68"
         id="circle8" />
    </clipPath>
  </defs>
  <title
     id="title10">guide</title>
  <path
     class="cls-3"
     d="M0,231.77H10v19l14.29-19h12L19.84,251.92l17.72,23.52H24.89L10,254.66v20.77H0Z"
     id="path14" />
  <path
     class="cls-3"
     d="M46.94,275.44V231.77h10v27.14l19.34-27.14H85v43.67H75V248.3L55.67,275.44Z"
     id="path16" />
  <path
     class="cls-3"
     d="M125.87,257.84H110v17.59H100V231.77h10v16.72h15.9V231.77h10v43.67h-10Z"
     id="path18" />
  <path
     class="cls-3"
     d="M204.31,231.77H214v34.31h14.52V231.77h9.68v34.31h5.75v16.84h-9.08v-7.49H204.31Z"
     id="path20" />
  <path
     class="cls-3"
     d="M260.31,231.77h25.11v9.36H270v7.67h13.61v9.36H270v7.92h16v9.36H260.31Z"
     id="path22" />
  <path
     class="cls-3"
     d="M326.05,253.17l14.1,22.27H328.78l-9.08-14.66-9,14.66H299.37l14.1-22.27L300,231.77h11.38l8.59,14,8.23-14h11.38Z"
     id="path24" />
  <circle
     class="cls-4"
     cx="170.08"
     cy="98.68"
     r="98.68"
     id="circle26" />
  <g
     class="cls-5"
     id="g28"
     clip-path="url(#clip-path)">
    <polygon
       class="cls-6"
       points="110 39.41 110 81.29 110 123.17 151.88 123.17 151.88 81.29 151.88 39.41 110 39.41"
       id="polygon30" />
    <rect
       class="cls-4"
       x="123.16"
       y="73.51"
       width="15.56"
       height="15.56"
       id="rect32" />
    <polygon
       class="cls-7"
       points="68.11 60.35 68.11 102.23 68.11 144.11 110 144.11 110 102.23 110 60.35 68.11 60.35"
       id="polygon34" />
    <rect
       class="cls-8"
       x="68.11"
       y="18.47"
       width="41.88"
       height="41.88"
       id="rect36" />
    <rect
       class="cls-8"
       x="89.05"
       y="-2.48"
       width="41.88"
       height="41.88"
       id="rect38" />
    <rect
       class="cls-2"
       x="173.16"
       y="-20.94"
       width="41.88"
       height="41.88"
       id="rect40" />
    <rect
       class="cls-7"
       x="68.11"
       y="144.11"
       width="41.88"
       height="41.88"
       id="rect42" />
    <rect
       class="cls-2"
       x="89.05"
       y="123.17"
       width="41.88"
       height="41.88"
       id="rect44" />
    <polygon
       class="cls-6"
       points="172.82 165.05 130.94 165.05 172.82 123.17 172.82 165.05"
       id="polygon46" />
    <polygon
       class="cls-8"
       points="173.22 39.41 130.94 39.41 173.22 -2.88 173.22 39.41"
       id="polygon48" />
    <polygon
       class="cls-7"
       points="277.52 39.41 235.64 39.41 193.76 39.41 193.76 81.29 235.64 81.29 277.52 81.29 277.52 39.41"
       id="polygon50" />
    <rect
       class="cls-8"
       x="151.88"
       y="81.29"
       width="41.88"
       height="41.88"
       transform="translate(275.05 -70.59) rotate(90)"
       id="rect52" />
    <rect
       class="cls-6"
       x="172.82"
       y="102.23"
       width="41.88"
       height="41.88"
       transform="translate(316.93 -70.59) rotate(90)"
       id="rect54" />
    <polygon
       class="cls-7"
       points="277.52 165.05 235.64 165.05 193.76 165.05 193.76 206.94 235.64 206.94 277.52 206.94 277.52 165.05"
       id="polygon56" />
    <rect
       class="cls-2"
       x="151.88"
       y="165.05"
       width="41.88"
       height="41.88"
       transform="translate(358.81 13.18) rotate(90)"
       id="rect58" />
    <rect
       class="cls-7"
       x="110"
       y="186"
       width="41.88"
       height="41.88"
       transform="translate(337.87 76) rotate(90)"
       id="rect60" />
    <rect
       class="cls-7"
       x="172.82"
       y="185.99"
       width="41.88"
       height="41.88"
       transform="translate(400.7 13.18) rotate(90)"
       id="rect62" />
    <circle
       class="cls-2"
       cx="172.82"
       cy="60.35"
       r="20.94"
       id="circle64" />
    <circle
       class="cls-8"
       cx="235.64"
       cy="144.11"
       r="20.94"
       id="circle66" />
    <circle
       class="cls-4"
       cx="235.64"
       cy="144.11"
       r="8.03"
       id="circle68" />
    <rect
       class="cls-6"
       x="193.76"
       y="-2.48"
       width="41.88"
       height="41.88"
       id="rect70" />
    <polygon
       class="cls-8"
       points="235.64 81.29 193.76 81.29 193.76 123.17 235.64 123.17 277.52 123.17 277.52 81.29 235.64 81.29"
       id="polygon72" />
    <polygon
       class="cls-4"
       points="218.82 108.64 233.36 94.11 247.9 108.64 218.82 108.64"
       id="polygon74" />
  </g>
</svg>
