<svg id="Слой_1" data-name="Слой 1" xmlns="http://www.w3.org/2000/svg" xmlns:xlink="http://www.w3.org/1999/xlink" viewBox="0 0 339.54 282.92"><defs><style>.cls-1{fill:none;}.cls-2{fill:#e64c3c;}.cls-3{fill:#fff;}.cls-4{fill:#bcd3dd;}.cls-5{clip-path:url(#clip-path);}.cls-6{fill:#eee;}.cls-7{fill:#3f5765;}.cls-8{fill:#2b3a42;}</style><clipPath id="clip-path"><circle class="cls-1" cx="170.08" cy="98.68" r="98.68"/></clipPath></defs><title>guide</title><path class="cls-2" d="M170.08,231.77c-13.91,0-23.2,9.92-23.2,22.58,0,13.9,9.92,22.58,23.2,22.58s23.21-9.36,23.21-22.58C193.28,240.44,183.36,231.77,170.08,231.77Zm0,31.87a9,9,0,0,1-8.85-9.29c0-5.61,3.77-9.29,8.85-9.29s8.85,3.68,8.85,9.29C178.93,259.52,175.91,263.64,170.08,263.64Z"/><path class="cls-3" d="M0,231.77H10v19l14.29-19h12L19.84,251.92l17.72,23.52H24.89L10,254.66v20.77H0Z"/><path class="cls-3" d="M46.94,275.44V231.77h10v27.14l19.34-27.14H85v43.67H75V248.3L55.67,275.44Z"/><path class="cls-3" d="M125.87,257.84H110v17.59H100V231.77h10v16.72h15.9V231.77h10v43.67h-10Z"/><path class="cls-3" d="M204.31,231.77H214v34.31h14.52V231.77h9.68v34.31h5.75v16.84h-9.08v-7.49H204.31Z"/><path class="cls-3" d="M260.31,231.77h25.11v9.36H270v7.67h13.61v9.36H270v7.92h16v9.36H260.31Z"/><path class="cls-3" d="M326.05,253.17l14.1,22.27H328.78l-9.08-14.66-9,14.66H299.37l14.1-22.27L300,231.77h11.38l8.59,14,8.23-14h11.38Z"/><circle class="cls-4" cx="170.08" cy="98.68" r="98.68"/><g class="cls-5"><polygon class="cls-6" points="110 39.41 110 81.29 110 123.17 151.88 123.17 151.88 81.29 151.88 39.41 110 39.41"/><rect class="cls-4" x="123.16" y="73.51" width="15.56" height="15.56"/><polygon class="cls-7" points="68.11 60.35 68.11 102.23 68.11 144.11 110 144.11 110 102.23 110 60.35 68.11 60.35"/><rect class="cls-8" x="68.11" y="18.47" width="41.88" height="41.88"/><rect class="cls-8" x="89.05" y="-2.48" width="41.88" height="41.88"/><rect class="cls-2" x="173.16" y="-20.94" width="41.88" height="41.88"/><rect class="cls-7" x="68.11" y="144.11" width="41.88" height="41.88"/><rect class="cls-2" x="89.05" y="123.17" width="41.88" height="41.88"/><polygon class="cls-6" points="172.82 165.05 130.94 165.05 172.82 123.17 172.82 165.05"/><polygon class="cls-8" points="173.22 39.41 130.94 39.41 173.22 -2.88 173.22 39.41"/><polygon class="cls-7" points="277.52 39.41 235.64 39.41 193.76 39.41 193.76 81.29 235.64 81.29 277.52 81.29 277.52 39.41"/><rect class="cls-8" x="151.88" y="81.29" width="41.88" height="41.88" transform="translate(275.05 -70.59) rotate(90)"/><rect class="cls-6" x="172.82" y="102.23" width="41.88" height="41.88" transform="translate(316.93 -70.59) rotate(90)"/><polygon class="cls-7" points="277.52 165.05 235.64 165.05 193.76 165.05 193.76 206.94 235.64 206.94 277.52 206.94 277.52 165.05"/><rect class="cls-2" x="151.88" y="165.05" width="41.88" height="41.88" transform="translate(358.81 13.18) rotate(90)"/><rect class="cls-7" x="110" y="186" width="41.88" height="41.88" transform="translate(337.87 76) rotate(90)"/><rect class="cls-7" x="172.82" y="185.99" width="41.88" height="41.88" transform="translate(400.7 13.18) rotate(90)"/><circle class="cls-2" cx="172.82" cy="60.35" r="20.94"/><circle class="cls-8" cx="235.64" cy="144.11" r="20.94"/><circle class="cls-4" cx="235.64" cy="144.11" r="8.03"/><rect class="cls-6" x="193.76" y="-2.48" width="41.88" height="41.88"/><polygon class="cls-8" points="235.64 81.29 193.76 81.29 193.76 123.17 235.64 123.17 277.52 123.17 277.52 81.29 235.64 81.29"/><polygon class="cls-4" points="218.82 108.64 233.36 94.11 247.9 108.64 218.82 108.64"/></g></svg>