<svg id="Слой_1" data-name="Слой 1" xmlns="http://www.w3.org/2000/svg" viewBox="0 0 373.18 47.91"><defs><style>.cls-1{fill:#e64c3c;}.cls-2{fill:#2b3a42;}</style></defs><title>guide</title><path class="cls-1" d="M186.59,0c-15.26,0-25.46,10.88-25.46,24.77,0,15.25,10.88,24.77,25.46,24.77s25.46-10.27,25.46-24.77C212.05,9.51,201.17,0,186.59,0Zm0,35a9.86,9.86,0,0,1-9.71-10.19c0-6.16,4.13-10.2,9.71-10.2s9.71,4,9.71,10.2C196.31,30.45,193,35,186.59,35Z"/><path class="cls-2" d="M0,0H10.95V20.88L26.62,0H39.76l-18,22.11L41.2,47.91H27.3L10.95,25.12V47.91H0Z"/><path class="cls-2" d="M51.49,47.91V0H62.44V29.77L83.66,0h9.58V47.91H82.29V18.14L61.07,47.91Z"/><path class="cls-2" d="M138.09,28.61H120.64v19.3H109.69V0h10.95V18.34h17.45V0H149V47.91H138.09Z"/><path class="cls-2" d="M224.14,0h10.62V37.64H250.7V0h10.62V37.64h6.3V56.12h-10V47.91H224.14Z"/><path class="cls-2" d="M285.59,0h27.55V10.27H296.21v8.42h14.94V28.95H296.21v8.69H313.8V47.91H285.59Z"/><path class="cls-2" d="M357.71,23.48l15.47,24.43H360.7l-10-16.08-9.83,16.08H328.44L343.9,23.48,329.17,0h12.48l9.43,15.4,9-15.4h12.48Z"/></svg>